<?xml version="1.0" standalone="no"?>
<!DOCTYPE svg PUBLIC "-//W3C//DTD SVG 20010904//EN"
 "http://www.w3.org/TR/2001/REC-SVG-20010904/DTD/svg10.dtd">
<svg version="1.0" xmlns="http://www.w3.org/2000/svg"
 width="512.000000pt" height="512.000000pt" viewBox="0 0 512.000000 512.000000"
 preserveAspectRatio="xMidYMid meet">

<g transform="translate(0.000000,512.000000) scale(0.100000,-0.100000)"
fill="#000000" stroke="none">
<path d="M2425 5013 c-178 -13 -448 -67 -600 -120 -383 -134 -664 -309 -945
-593 -95 -95 -229 -257 -275 -331 -32 -51 -55 -86 -66 -98 -23 -25 -175 -335
-198 -401 -50 -145 -100 -321 -119 -415 -62 -303 -62 -702 -1 -973 10 -46 19
-91 19 -100 0 -10 25 -94 55 -187 89 -275 243 -563 421 -787 65 -82 273 -293
349 -353 28 -22 68 -55 91 -75 91 -79 106 -90 183 -129 11 -6 31 -16 44 -23
12 -6 54 -27 92 -45 39 -19 88 -43 110 -55 34 -17 204 -82 285 -108 81 -26
243 -62 360 -81 175 -29 475 -31 620 -5 52 10 122 21 155 26 33 4 89 17 125
28 36 11 76 22 90 25 75 15 338 122 436 178 21 12 71 38 109 57 190 98 502
380 676 612 299 400 467 859 499 1363 21 325 -46 769 -151 1005 -10 23 -19 47
-19 52 0 34 -144 315 -223 435 -157 240 -271 366 -532 590 -51 44 -246 171
-342 223 -125 68 -424 192 -462 192 -7 0 -43 8 -79 19 -80 22 -207 46 -317 60
-84 11 -321 19 -390 14z m169 -33 c-6 -6 -21 -6 -39 -1 -30 9 -30 9 10 10 25
1 36 -2 29 -9z m406 -36 c140 -29 234 -56 363 -102 117 -42 136 -54 122 -78
-18 -29 -94 -77 -122 -77 -16 0 -77 25 -138 55 -138 69 -391 171 -456 183 -20
4 -49 18 -65 31 l-29 24 105 -6 c58 -3 157 -17 220 -30z m-537 -319 c3 -77 3
-132 0 -122 -5 18 -6 18 -24 1 -16 -15 -32 -16 -117 -11 -207 14 -221 21 -184
94 44 86 56 108 62 113 3 3 24 32 46 65 55 85 137 165 169 165 17 0 25 6 26
18 3 28 16 -173 22 -323z m-379 290 c3 -8 2 -14 -2 -13 -13 2 -140 -55 -305
-138 -59 -29 -106 -50 -103 -45 3 5 -3 11 -14 14 -14 4 -20 14 -20 35 0 24 6
32 38 45 96 40 278 99 342 110 48 8 58 7 64 -8z m449 4 c75 -39 299 -342 289
-390 -4 -20 -39 -26 -193 -35 -92 -5 -117 -4 -126 7 -16 20 -34 411 -19 421
15 10 24 10 49 -3z m-323 -8 c-8 -5 -26 -12 -40 -15 l-25 -7 25 15 c14 9 32
15 40 15 13 0 13 -1 0 -8z m57 -78 c-60 -73 -167 -246 -167 -270 0 -6 -10 -17
-22 -25 -20 -13 -31 -13 -93 2 -95 24 -173 61 -167 80 6 17 10 20 116 98 145
106 304 191 359 191 l38 1 -64 -77z m423 57 c11 -5 28 -14 38 -18 60 -30 198
-114 242 -149 110 -87 140 -117 140 -138 0 -20 -6 -25 -37 -30 -21 -4 -67 -13
-102 -21 -80 -19 -109 -9 -140 49 -35 66 -65 114 -84 135 -9 10 -17 22 -17 25
0 8 -28 43 -89 109 l-44 48 37 0 c20 0 45 -4 56 -10z m87 -5 c0 -8 -4 -12 -9
-9 -5 3 -6 10 -3 15 9 13 12 11 12 -6z m211 -64 c53 -21 145 -62 205 -90 123
-58 134 -77 67 -111 -66 -33 -98 -27 -161 30 -29 28 -84 71 -121 97 -37 25
-73 52 -79 59 -6 8 -17 14 -25 14 -16 0 -27 17 -19 30 10 16 30 12 133 -29z
m-979 5 c9 -10 -1 -22 -44 -55 -31 -22 -59 -41 -63 -41 -4 0 -33 -24 -64 -54
-32 -29 -58 -49 -58 -45 0 5 -8 9 -18 9 -24 0 -56 35 -49 54 7 17 208 121 283
146 1 0 7 -6 13 -14z m1601 -94 c184 -88 404 -246 584 -422 l118 -116 -45 -44
c-59 -59 -146 -111 -172 -104 -11 3 -30 19 -41 35 -25 36 -125 148 -175 198
-110 110 -208 189 -357 291 -117 80 -122 94 -57 141 31 23 45 39 42 50 -6 21
2 19 103 -29z m-1993 9 c19 -25 20 -31 7 -49 -8 -11 -31 -31 -51 -43 -156 -95
-425 -341 -543 -496 -36 -48 -62 -73 -75 -73 -31 0 -104 95 -105 137 0 43 292
303 438 388 9 6 37 24 62 40 56 37 221 124 236 125 5 0 20 -13 31 -29z m123
-136 c0 -5 -23 -35 -50 -65 -108 -119 -219 -265 -271 -356 -10 -19 -29 -51
-41 -71 -34 -61 -88 -172 -88 -183 0 -5 -11 -12 -24 -16 -50 -12 -266 96 -266
134 0 25 38 80 110 162 31 36 65 76 76 88 16 20 238 218 269 240 78 57 185
122 199 122 11 0 14 4 10 12 -5 7 11 -3 34 -22 23 -19 42 -39 42 -45z m1696
-7 c27 -18 56 -37 65 -43 47 -29 127 -86 146 -104 12 -12 25 -21 28 -21 12 0
208 -189 285 -276 41 -45 125 -159 105 -142 -4 4 -26 -4 -49 -17 -49 -28 -308
-115 -350 -117 -31 -1 -61 29 -72 72 -12 44 -171 339 -195 360 -3 3 -30 39
-61 81 -31 42 -67 87 -81 101 -33 33 -47 61 -38 76 10 17 112 61 142 61 14 1
47 -13 75 -31z m-1586 -39 c30 -12 83 -29 117 -38 81 -21 98 -42 73 -91 -46
-90 -141 -417 -165 -569 -8 -52 -38 -81 -75 -76 -171 26 -414 74 -460 92 -8 4
-18 7 -22 7 -3 1 -10 5 -15 10 -4 5 -3 6 3 3 7 -4 12 3 12 18 0 23 91 214 117
245 7 8 20 30 29 48 51 100 284 372 319 372 7 0 37 -10 67 -21z m1341 -36 c84
-71 253 -314 329 -473 83 -174 81 -168 64 -185 -8 -8 -22 -15 -30 -15 -31 0
-11 -19 23 -22 43 -3 48 -11 86 -133 31 -99 61 -223 91 -380 l23 -119 -21 -17
c-13 -10 -66 -25 -122 -34 -119 -20 -134 -24 -134 -36 0 -12 91 -2 192 21 71
16 78 16 82 1 14 -45 26 -162 32 -309 6 -146 14 -186 31 -169 3 3 -2 115 -10
249 -9 133 -14 244 -11 247 7 7 111 40 159 50 69 15 199 62 333 121 62 27 76
30 86 19 15 -17 60 -207 81 -342 24 -149 30 -308 14 -328 -24 -28 -172 -75
-412 -130 -101 -24 -126 -33 -115 -44 4 -4 40 1 80 10 148 34 274 67 328 85
30 10 73 22 94 26 l39 7 -6 -199 c-7 -227 -25 -350 -57 -376 -17 -14 -72 -33
-320 -111 -45 -14 -60 -27 -32 -27 31 0 151 33 251 70 46 16 85 30 87 30 2 0
8 -9 13 -19 8 -14 3 -48 -19 -132 -48 -181 -57 -211 -79 -262 -12 -27 -21 -54
-21 -61 0 -7 -13 -32 -28 -57 -25 -39 -38 -47 -103 -71 -88 -31 -219 -67 -384
-103 -66 -15 -142 -34 -169 -43 -48 -17 -50 -19 -81 -94 -73 -175 -217 -418
-267 -450 -20 -13 -112 -23 -303 -32 -40 -2 -43 19 -12 118 47 152 74 251 86
312 13 72 14 84 3 84 -5 0 -19 -44 -31 -97 -26 -112 -64 -245 -92 -318 -10
-28 -19 -58 -19 -68 0 -9 -5 -17 -11 -17 -5 0 -8 -4 -5 -8 6 -10 -4 -11 -192
-18 -144 -5 -165 -4 -182 11 -17 15 -19 15 -23 -2 -3 -10 -5 91 -6 224 l-1
241 31 11 c18 6 50 11 73 12 23 0 50 4 61 9 23 10 24 10 -100 13 l-70 2 -6 40
c-5 39 -14 35 -21 -10 -3 -19 -12 -20 -173 -23 -94 -2 -220 0 -282 3 l-112 7
-6 29 c-7 29 -25 41 -25 15 0 -32 -24 -37 -151 -25 -68 6 -160 17 -204 25 -94
16 -179 19 -170 4 3 -5 21 -10 38 -10 18 0 66 -7 107 -15 41 -8 135 -20 209
-25 74 -6 146 -17 160 -25 20 -10 30 -28 44 -82 25 -90 64 -210 100 -305 42
-111 41 -112 -96 -104 -140 8 -258 25 -274 38 -7 6 -13 7 -13 4 0 -16 -82 89
-141 181 -87 134 -82 125 -141 246 -29 59 -58 107 -65 107 -32 0 143 -326 247
-460 15 -19 27 -42 27 -52 0 -20 -26 -17 -187 20 -106 25 -118 30 -163 72 -93
85 -260 309 -336 452 -25 47 -27 57 -15 62 8 3 12 10 9 16 -3 6 19 1 51 -11
97 -36 154 -49 154 -35 0 7 -28 21 -62 30 -35 10 -92 30 -128 44 -36 15 -69
26 -73 24 -5 -1 -6 2 -3 7 4 5 3 11 -2 13 -8 3 -62 120 -62 134 0 5 -9 31 -19
59 -23 61 -66 213 -79 277 -7 35 -6 53 3 65 12 16 18 16 91 -11 76 -27 240
-77 297 -90 20 -5 27 -3 27 8 0 9 -16 17 -42 21 -54 9 -300 91 -350 116 -20
10 -40 24 -44 31 -16 26 -34 180 -40 358 -9 230 -13 222 112 182 173 -56 260
-81 307 -87 83 -11 51 12 -55 39 -152 38 -195 51 -278 83 -59 23 -77 34 -84
56 -17 48 23 369 75 609 15 67 32 69 137 15 48 -24 125 -59 172 -77 116 -46
119 -49 110 -113 -7 -46 -14 -134 -36 -414 -5 -69 -4 -83 8 -83 12 0 16 26 21
133 8 185 35 389 53 403 15 12 35 9 189 -32 50 -13 102 -24 115 -24 14 0 68
-9 120 -20 52 -11 119 -20 147 -20 76 0 86 -19 77 -144 -7 -99 0 -150 16 -111
5 11 9 58 9 105 1 59 6 92 16 107 8 12 12 23 7 26 -4 2 -2 3 4 1 6 -1 83 -7
170 -13 88 -6 188 -13 224 -16 36 -3 109 -5 163 -5 l97 0 0 -81 c0 -60 3 -80
13 -76 8 2 12 30 12 93 l0 89 -205 8 c-405 15 -444 18 -468 35 l-21 17 14 165
c13 153 32 297 53 412 5 26 7 50 3 54 -3 3 -1 5 4 3 6 -1 18 1 28 6 11 4 62 5
115 1 246 -16 349 -19 356 -8 9 14 -41 20 -239 27 -255 9 -257 10 -235 108 38
169 91 362 128 457 61 161 61 161 126 149 22 -5 92 -8 154 -9 89 0 117 -3 129
-16 13 -13 17 -13 24 -2 5 7 9 -109 9 -260 0 -215 3 -273 13 -269 9 3 11 61 8
259 -3 194 -1 257 9 263 9 6 9 9 0 15 -13 8 326 20 348 12 17 -6 98 -195 116
-272 8 -35 23 -56 33 -46 7 7 -27 113 -85 263 -12 30 -16 55 -11 59 5 3 7 9 5
13 -3 4 36 16 86 25 50 10 101 22 112 26 36 15 53 11 87 -17z m-2320 -403 c23
-30 47 -58 53 -62 19 -12 13 -31 -35 -113 -50 -86 -142 -267 -151 -300 -20
-66 -70 -190 -81 -197 -20 -12 -23 -11 -85 46 -70 65 -115 127 -114 159 0 37
181 342 246 414 6 6 31 36 56 66 26 34 49 53 56 49 6 -4 31 -32 55 -62z m3463
34 c21 -8 216 -271 216 -291 0 -4 6 -14 14 -22 7 -9 39 -64 70 -123 l57 -107
-51 -51 c-27 -27 -54 -50 -60 -50 -5 0 -10 -3 -10 -8 0 -9 -90 -69 -125 -82
-23 -9 -28 -6 -45 23 -11 17 -27 54 -35 80 -21 70 -141 311 -192 385 -23 35
-43 73 -43 86 0 20 46 66 67 66 4 0 33 22 63 50 64 57 54 51 74 44z m-3219
-217 c134 -62 130 -60 129 -95 -1 -17 -11 -55 -22 -84 -47 -123 -92 -292 -123
-460 -5 -31 -16 -59 -24 -62 -24 -9 -127 29 -262 96 -88 44 -123 70 -123 93 0
20 46 156 72 213 83 180 164 329 198 365 14 14 18 13 45 -7 17 -12 66 -39 110
-59z m3002 14 c12 -14 22 -30 23 -35 0 -5 6 -17 14 -25 53 -60 203 -383 222
-477 6 -34 6 -34 -161 -107 -90 -38 -301 -105 -361 -114 -51 -7 -56 0 -74 112
-23 148 -62 305 -116 468 -20 59 -12 71 65 93 84 25 240 79 291 102 51 22 66
19 97 -17z m-2632 -135 c61 -14 160 -32 220 -41 134 -19 148 -30 135 -95 -14
-75 -49 -369 -55 -469 -3 -52 -10 -100 -17 -108 -9 -11 -28 -13 -87 -8 -85 7
-333 53 -456 85 -99 25 -116 42 -104 102 5 24 11 61 15 83 12 76 89 342 126
432 23 56 35 63 83 51 17 -4 80 -18 140 -32z m-1025 -236 c35 -48 94 -109 133
-137 49 -36 49 -37 44 -82 -3 -25 -19 -111 -36 -191 -27 -124 -43 -264 -53
-436 -2 -48 -10 -49 -88 -9 -77 39 -158 96 -203 142 l-37 39 10 59 c32 184
106 440 167 577 19 43 29 55 42 51 9 -4 18 -10 21 -13z m4282 -95 c57 -137
110 -320 139 -485 21 -121 19 -128 -54 -179 -58 -40 -230 -129 -253 -131 -39
-4 -42 0 -49 73 -25 263 -39 350 -90 544 -16 63 -16 63 85 128 41 27 95 66
119 87 25 21 51 37 60 36 8 -2 27 -34 43 -73z m-4512 -641 c0 6 12 -2 28 -15
25 -23 39 -33 111 -81 14 -10 53 -31 86 -48 33 -17 66 -38 73 -47 7 -11 12
-49 12 -102 0 -47 4 -135 9 -196 22 -261 22 -255 5 -262 -34 -13 -215 107
-294 195 l-57 64 -5 115 c-3 63 -1 169 4 236 5 67 9 131 9 142 0 16 2 17 9 5
5 -8 10 -11 10 -6z m4666 -32 c16 -10 26 -213 18 -364 -6 -106 -10 -131 -23
-136 -9 -3 -28 -17 -42 -31 -15 -14 -37 -35 -50 -45 -33 -28 -197 -126 -209
-126 -6 0 -22 -7 -36 -17 -23 -15 -26 -15 -41 0 -15 15 -15 27 -4 119 7 57 15
178 18 271 l6 167 26 6 c33 8 221 101 242 120 8 8 19 14 23 14 4 0 14 7 22 15
17 16 33 19 50 7z m0 -600 c-3 -15 -12 -65 -21 -112 -16 -94 -51 -229 -85
-332 -19 -58 -26 -68 -46 -68 -12 0 -31 -10 -41 -23 -29 -36 -147 -113 -251
-163 -78 -37 -98 -43 -108 -32 -11 11 -9 25 10 78 60 166 82 241 111 375 10
44 22 86 28 93 5 6 55 35 111 62 55 28 137 77 181 109 63 45 84 56 98 49 13
-7 17 -17 13 -36z m-4599 5 c59 -51 132 -102 198 -136 85 -44 90 -49 104 -116
7 -33 19 -87 28 -120 9 -33 19 -76 23 -95 6 -29 59 -179 84 -241 4 -9 0 -21
-8 -28 -12 -11 -31 -4 -103 35 -111 60 -145 84 -211 153 -29 31 -57 55 -62 54
-5 -2 -12 9 -16 25 -3 15 -14 50 -24 77 -20 57 -62 235 -80 339 -9 56 -9 71 2
77 20 13 25 11 65 -24z m4208 -147 c-3 -5 -12 -10 -18 -10 -7 0 -6 4 3 10 19
12 23 12 15 0z m246 -393 c-6 -8 -7 -18 -3 -22 4 -5 1 -5 -6 -1 -10 6 -10 11
-1 22 6 8 14 14 16 14 3 0 0 -6 -6 -13z m-25 -52 c13 -33 -175 -378 -274 -503
-35 -44 -152 -129 -232 -169 -73 -36 -278 -118 -267 -107 4 4 2 13 -5 21 -9
11 -5 21 19 46 16 18 45 52 63 77 19 25 37 47 40 50 14 11 111 162 142 221 82
151 94 169 115 169 25 0 251 117 315 164 70 50 76 53 84 31z m-4248 -50 c33
-24 108 -69 168 -100 127 -66 131 -69 164 -131 63 -119 196 -323 246 -379 81
-90 98 -109 90 -102 -5 4 -15 2 -23 -5 -15 -12 -42 -3 -192 68 -206 99 -292
194 -460 506 -74 139 -85 177 -54 187 2 1 29 -19 61 -44z m3750 -209 c4 -20
-31 -90 -90 -179 -21 -32 -38 -63 -38 -68 0 -5 -3 -9 -7 -9 -5 0 -19 -17 -33
-38 -36 -55 -97 -129 -165 -198 -43 -44 -71 -65 -100 -72 -77 -20 -231 -51
-310 -62 -44 -6 -88 -13 -97 -16 -28 -8 -32 32 -6 68 52 72 191 340 217 421 8
22 19 37 29 38 73 3 441 87 537 123 47 17 59 16 63 -8z m-2010 -192 c148 -5
235 -11 241 -18 5 -6 12 -110 15 -231 9 -282 26 -260 -196 -252 -90 3 -172 8
-184 12 -32 10 -71 107 -158 390 -28 93 -22 121 22 111 15 -3 132 -9 260 -12z
m2058 -272 c-67 -72 -168 -168 -213 -204 -24 -18 -68 -53 -99 -77 -72 -57
-197 -139 -254 -167 -67 -32 -170 -74 -170 -69 0 2 -26 -5 -57 -16 -32 -11
-74 -22 -93 -25 -19 -3 -60 -12 -90 -19 -48 -13 -56 -12 -72 2 -17 15 -14 18
49 50 38 19 81 42 98 51 40 23 239 154 245 161 3 4 25 22 50 41 25 19 77 62
115 96 60 53 83 66 155 89 90 28 168 59 265 105 32 16 71 28 86 27 l26 -2 -41
-43z m-3332 -11 c48 -23 100 -47 115 -51 75 -23 166 -61 185 -77 12 -10 44
-39 72 -63 143 -127 296 -231 461 -316 60 -31 71 -40 61 -52 -9 -10 -23 -12
-48 -8 -19 3 -51 9 -70 12 -19 3 -42 8 -50 11 -18 7 -11 5 -83 27 -80 25 -172
67 -236 110 -29 20 -55 36 -57 36 -8 0 -149 103 -156 114 -24 37 -42 55 -49
50 -11 -7 -44 19 -138 108 -94 89 -124 125 -116 138 4 6 10 10 13 8 4 -2 47
-23 96 -47z m2866 -115 c0 -2 -7 -7 -16 -10 -8 -3 -12 -2 -9 4 6 10 25 14 25
6z m-67 -30 c3 -8 -3 -23 -14 -34 -23 -26 -162 -132 -249 -191 -84 -57 -371
-203 -452 -230 -64 -21 -108 -19 -108 4 0 7 49 54 109 103 60 50 146 133 191
185 88 103 104 112 203 122 34 4 105 15 157 25 52 11 106 21 120 23 14 2 28 5
31 6 4 0 9 -5 12 -13z m-2323 -6 c19 -6 68 -17 108 -25 l73 -15 113 -110 c109
-106 162 -151 280 -235 31 -22 56 -42 56 -46 0 -4 -9 -9 -20 -12 -11 -3 -18
-2 -16 2 3 4 -21 16 -52 26 -56 19 -78 29 -233 113 -115 62 -210 127 -371 255
-59 47 -26 72 62 47z m395 -65 c66 -8 142 -15 168 -15 66 0 82 -11 117 -81 17
-34 44 -81 60 -106 17 -24 30 -46 30 -49 0 -2 23 -34 51 -70 28 -36 49 -67 46
-70 -3 -3 -22 -9 -42 -14 -36 -8 -39 -7 -170 64 -50 27 -157 105 -230 167 -76
65 -203 189 -178 175 6 -3 14 -2 18 4 3 5 7 10 8 10 2 0 57 -7 122 -15z m1420
-21 c-2 -25 -44 -74 -145 -171 -37 -36 -94 -81 -215 -171 -55 -41 -91 -51
-129 -36 -23 9 -20 18 22 83 52 77 152 278 144 287 -4 4 -2 4 5 0 6 -3 14 -2
18 4 3 5 41 10 83 11 42 1 102 4 132 9 91 12 89 13 85 -16z m-1118 0 c-3 -3
-12 -4 -19 -1 -8 3 -5 6 6 6 11 1 17 -2 13 -5z m345 -31 c17 -17 21 -41 28
-179 11 -186 8 -194 -69 -194 -48 0 -67 13 -131 86 -37 41 -103 135 -118 164
-7 14 -25 48 -40 76 -40 73 -34 75 157 70 136 -3 155 -6 173 -23z m406 14 c8
-9 2 -32 -20 -82 -17 -39 -34 -74 -38 -80 -4 -5 -18 -28 -30 -50 -12 -22 -43
-68 -68 -102 -42 -54 -52 -62 -90 -68 -26 -4 -54 -2 -71 6 l-29 13 -7 158 c-8
191 -4 205 72 211 124 9 271 7 281 -6z m652 -287 c-8 -5 -22 -9 -30 -9 -10 0
-8 3 5 9 27 12 43 12 25 0z m-80 -30 c0 -5 -5 -10 -11 -10 -5 0 -7 5 -4 10 3
6 8 10 11 10 2 0 4 -4 4 -10z m-1710 -20 c0 -5 -2 -10 -4 -10 -3 0 -8 5 -11
10 -3 6 -1 10 4 10 6 0 11 -4 11 -10z m1425 0 c3 -5 1 -10 -4 -10 -6 0 -11 5
-11 10 0 6 2 10 4 10 3 0 8 -4 11 -10z m-50 -10 c-3 -5 -12 -10 -18 -10 -7 0
-6 4 3 10 19 12 23 12 15 0z m-785 -25 c7 -9 8 -15 2 -15 -5 0 -12 7 -16 15
-3 8 -4 15 -2 15 2 0 9 -7 16 -15z m395 6 c-3 -5 5 -12 17 -14 16 -3 13 -5
-11 -6 -29 -1 -32 1 -21 14 14 16 25 21 15 6z m522 -14 c-5 -15 -122 -51 -232
-72 -117 -22 -127 -22 -132 -8 -3 8 24 27 68 48 57 27 87 35 134 36 33 1 74 4
90 8 38 8 77 2 72 -12z m-1144 -19 c12 -7 25 -17 28 -22 4 -5 11 -6 17 -2 6 4
8 -2 5 -15 -3 -11 -11 -18 -19 -15 -7 3 -30 8 -51 11 -61 9 -153 37 -153 47 0
13 148 9 173 -4z m147 -18 c8 -5 11 -10 5 -10 -5 0 -17 5 -25 10 -8 5 -10 10
-5 10 6 0 17 -5 25 -10z m266 -13 c1 -12 1 -13 -3 -2 -2 8 -11 15 -18 15 -9 0
-12 -6 -9 -15 9 -22 -9 -18 -29 6 -18 20 -17 20 20 17 28 -2 38 -8 39 -21z
m124 14 c0 -15 -23 -26 -28 -13 -5 17 -32 15 -32 -3 0 -8 -5 -15 -11 -15 -6 0
-8 7 -5 16 4 12 2 15 -9 10 -8 -3 -15 -1 -15 4 0 6 23 10 50 10 28 0 50 -4 50
-9z m-78 -55 c7 4 8 2 4 -4 -12 -20 -26 -13 -25 11 1 17 2 18 6 4 2 -9 9 -14
15 -11z m-315 -2 c-3 -3 -12 -4 -19 -1 -8 3 -5 6 6 6 11 1 17 -2 13 -5z m520
-10 c-3 -3 -12 -4 -19 -1 -8 3 -5 6 6 6 11 1 17 -2 13 -5z"/>
<path d="M2861 4084 c-108 -24 -206 -79 -292 -164 -129 -128 -184 -260 -183
-435 1 -169 57 -299 183 -426 58 -58 94 -85 151 -112 121 -56 146 -62 270 -62
123 0 150 6 266 61 66 31 156 101 212 166 32 38 65 102 97 189 24 65 27 89 27
189 0 104 -3 123 -30 197 -37 98 -63 140 -131 215 -145 158 -362 228 -570 182z"/>
<path d="M2508 2810 c-119 -26 -238 -86 -238 -120 0 -21 -18 -8 -30 21 -23 56
-33 57 -305 61 -310 3 -309 4 -321 -124 -4 -39 -12 -68 -22 -75 -12 -10 -75
-13 -237 -13 -202 0 -223 -2 -238 -18 -15 -16 -17 -51 -17 -280 0 -327 -15
-302 174 -302 74 0 141 3 150 6 13 5 16 23 16 88 0 89 8 106 50 106 40 0 42
-10 10 -40 l-30 -28 0 -230 0 -231 26 -20 c37 -29 89 -27 119 4 l25 24 0 227
0 226 -30 28 c-32 30 -30 40 10 40 42 0 50 -17 50 -106 0 -65 3 -83 16 -88 9
-3 125 -6 259 -6 l243 0 6 23 c3 12 6 51 6 88 0 71 10 89 50 89 40 0 42 -10
10 -40 l-30 -28 0 -229 c0 -125 4 -233 8 -239 24 -36 97 -44 133 -15 24 19 24
22 27 240 3 236 -3 272 -48 286 -11 4 -18 11 -15 16 9 13 72 11 81 -3 4 -6 8
-46 9 -87 0 -42 4 -82 8 -88 6 -10 47 -13 146 -13 122 0 142 2 162 19 l24 19
0 260 c0 241 -1 261 -19 281 -10 11 -34 24 -53 27 -43 8 -25 24 28 24 47 0 85
-30 99 -78 8 -25 10 -211 8 -577 -3 -606 0 -580 -78 -631 -52 -34 -53 -59 -2
-68 114 -18 464 0 667 35 217 38 516 122 583 165 l22 14 0 353 c0 197 -5 380
-11 417 -13 81 -71 217 -121 284 -118 158 -273 261 -462 306 -73 18 -118 20
-456 19 -328 0 -386 -3 -462 -19z m-330 -170 c3 -43 -1 -57 -14 -67 -13 -10
-74 -13 -235 -13 -245 0 -249 1 -249 70 0 75 -15 71 254 68 l241 -3 3 -55z
m132 -50 c6 0 10 -4 10 -10 0 -16 -46 -12 -60 5 -7 8 -10 22 -6 30 5 13 9 12
26 -5 11 -11 25 -20 30 -20z m-741 -534 c9 -10 9 -16 1 -21 -17 -11 -40 3 -34
20 8 19 18 19 33 1z m761 -12 c0 -8 -7 -14 -15 -14 -15 0 -21 21 -9 33 10 9
24 -2 24 -19z m-757 -378 c9 -22 -18 -40 -33 -22 -6 9 -9 20 -5 26 9 15 32 12
38 -4z m757 -5 c0 -11 -4 -22 -9 -25 -12 -8 -34 21 -26 34 11 17 35 11 35 -9z"/>
<path d="M1107 1883 c-4 -3 -7 -124 -7 -268 0 -210 3 -265 14 -281 14 -18 36
-19 809 -22 773 -2 795 -2 818 17 24 19 24 20 27 248 2 125 0 247 -3 271 l-6
42 -160 0 -159 0 -11 -27 c-7 -18 -9 -74 -6 -153 3 -73 1 -133 -4 -143 -8 -14
-25 -17 -102 -17 -59 0 -97 4 -105 12 -8 8 -12 57 -12 154 0 78 -3 149 -6 158
-5 14 -37 16 -249 16 -134 0 -250 -3 -259 -6 -14 -5 -16 -29 -16 -158 0 -105
-4 -156 -12 -164 -16 -16 -190 -16 -206 0 -8 8 -12 59 -12 164 0 129 -2 153
-16 158 -21 8 -309 8 -317 -1z"/>
<path d="M2500 1216 c0 -11 8 -16 28 -15 15 0 21 3 12 6 -8 3 -21 10 -27 16
-9 7 -13 5 -13 -7z"/>
<path d="M3203 1203 c9 -2 23 -2 30 0 6 3 -1 5 -18 5 -16 0 -22 -2 -12 -5z"/>
</g>
</svg>
